<?xml version="1.0" encoding="UTF-8"?>
<!DOCTYPE svg PUBLIC "-//W3C//DTD SVG 1.1//EN" "http://www.w3.org/Graphics/SVG/1.1/DTD/svg11.dtd">
<svg xmlns="http://www.w3.org/2000/svg" version="1.1" width="217px" height="566px" style="shape-rendering:geometricPrecision; text-rendering:geometricPrecision; image-rendering:optimizeQuality; fill-rule:evenodd; clip-rule:evenodd" xmlns:xlink="http://www.w3.org/1999/xlink">
<g><path style="opacity:0.998" fill="#cfcb3f" d="M 117.5,87.5 C 116.194,90.6868 116.194,94.0202 117.5,97.5C 120.88,96.7873 122.88,94.7873 123.5,91.5C 125.213,92.6354 125.88,94.302 125.5,96.5C 124.5,96.5 123.5,96.5 122.5,96.5C 121.965,100.819 121.465,105.152 121,109.5C 115.801,120.561 110.634,131.561 105.5,142.5C 107.549,145.55 110.216,147.883 113.5,149.5C 114.246,150.736 114.579,152.07 114.5,153.5C 120.233,153.647 125.9,154.314 131.5,155.5C 133.63,158.737 136.63,160.737 140.5,161.5C 144.438,164.935 148.271,168.602 152,172.5C 153.404,174.639 154.237,176.972 154.5,179.5C 152.668,185.494 150.835,191.494 149,197.5C 147.629,199.041 146.129,200.375 144.5,201.5C 142.868,198.442 141.701,195.109 141,191.5C 140.292,190.619 139.458,189.953 138.5,189.5C 136.982,177.76 135.649,178.094 134.5,190.5C 133.914,190.709 133.414,191.043 133,191.5C 132.751,190.376 132.251,189.376 131.5,188.5C 127.372,190.941 125.372,194.607 125.5,199.5C 124.482,198.807 123.482,198.141 122.5,197.5C 122.055,194.755 121.055,192.255 119.5,190C 124.934,186.259 124.267,183.759 117.5,182.5C 115.142,176.251 112.309,170.251 109,164.5C 107.51,163.272 106.01,163.272 104.5,164.5C 98.0485,165.247 95.7152,168.914 97.5,175.5C 95.2647,174.771 93.4314,173.438 92,171.5C 90.9231,172.429 89.7564,173.096 88.5,173.5C 85.3527,173.737 82.3527,174.57 79.5,176C 74.2789,179.328 68.9456,182.162 63.5,184.5C 62.2867,182.324 60.62,181.991 58.5,183.5C 57.6143,184.325 57.281,185.325 57.5,186.5C 56.8333,186.5 56.1667,186.5 55.5,186.5C 55.5,185.833 55.5,185.167 55.5,184.5C 55.4208,183.07 55.7542,181.736 56.5,180.5C 53.8294,177.163 51.6627,173.496 50,169.5C 49.5702,166.808 49.7369,164.141 50.5,161.5C 52.9962,160.42 55.3295,159.086 57.5,157.5C 67.8867,156.158 78.22,154.491 88.5,152.5C 88.1611,142.105 87.1611,131.772 85.5,121.5C 87.3027,109.256 90.6361,97.4223 95.5,86C 95.3333,85.5 95.1667,85 95,84.5C 93.0565,85.807 91.2232,85.807 89.5,84.5C 89.4142,83.5041 89.7476,82.6708 90.5,82C 96.8595,81.1694 103.193,81.3361 109.5,82.5C 112.469,83.8068 115.135,85.4735 117.5,87.5 Z"/></g>
<g><path style="opacity:0.972" fill="#d9e2e7" d="M 89.5,84.5 C 91.2232,85.807 93.0565,85.807 95,84.5C 95.1667,85 95.3333,85.5 95.5,86C 90.6361,97.4223 87.3027,109.256 85.5,121.5C 87.1611,131.772 88.1611,142.105 88.5,152.5C 78.22,154.491 67.8867,156.158 57.5,157.5C 59.7715,156.027 61.1048,153.86 61.5,151C 61.0426,150.586 60.7093,150.086 60.5,149.5C 63.7287,133.919 67.8954,118.586 73,103.5C 75.6667,98.8333 78.3333,94.1667 81,89.5C 83.3128,86.9277 86.1461,85.261 89.5,84.5 Z"/></g>
<g><path style="opacity:0.854" fill="#7e7722" d="M 117.5,87.5 C 119.5,88.8333 121.5,90.1667 123.5,91.5C 122.88,94.7873 120.88,96.7873 117.5,97.5C 116.194,94.0202 116.194,90.6868 117.5,87.5 Z"/></g>
<g><path style="opacity:0.982" fill="#7c7521" d="M 125.5,96.5 C 127.173,97.343 128.34,98.6763 129,100.5C 131.87,115.025 134.036,129.358 135.5,143.5C 133.601,147.302 132.267,151.302 131.5,155.5C 125.9,154.314 120.233,153.647 114.5,153.5C 114.579,152.07 114.246,150.736 113.5,149.5C 110.216,147.883 107.549,145.55 105.5,142.5C 110.634,131.561 115.801,120.561 121,109.5C 121.465,105.152 121.965,100.819 122.5,96.5C 123.5,96.5 124.5,96.5 125.5,96.5 Z"/></g>
<g><path style="opacity:0.955" fill="#1a1e23" d="M 135.5,143.5 C 136.787,146.075 138.121,148.741 139.5,151.5C 142.75,153.612 145.75,155.945 148.5,158.5C 146.11,160.02 143.443,161.02 140.5,161.5C 136.63,160.737 133.63,158.737 131.5,155.5C 132.267,151.302 133.601,147.302 135.5,143.5 Z"/></g>
<g><path style="opacity:1" fill="#837c23" d="M 98.5,157.5 C 108.749,156.731 118.749,157.898 128.5,161C 129.91,161.368 130.91,162.201 131.5,163.5C 120.711,164.745 110.211,163.412 100,159.5C 98.9701,159.164 98.4701,158.497 98.5,157.5 Z"/></g>
<g><path style="opacity:0.998" fill="#7a7321" d="M 148.5,158.5 C 150.371,158.859 151.871,159.859 153,161.5C 159.783,170.065 165.283,179.399 169.5,189.5C 167.629,189.859 166.129,190.859 165,192.5C 163.931,195.208 162.764,197.875 161.5,200.5C 163.021,200.88 164.687,201.046 166.5,201C 167.817,202.659 169.483,203.826 171.5,204.5C 173.171,212.77 172.338,220.77 169,228.5C 165.773,226.111 163.606,227.111 162.5,231.5C 162.833,231.833 163.167,232.167 163.5,232.5C 167.6,230.355 171.933,229.022 176.5,228.5C 176.195,233.762 176.529,238.928 177.5,244C 174.588,246.673 174.921,248.84 178.5,250.5C 175.717,253.342 176.05,255.842 179.5,258C 176.774,258.182 174.107,258.682 171.5,259.5C 172.752,261.001 173.752,262.668 174.5,264.5C 173.167,265.5 171.833,266.5 170.5,267.5C 172.401,268.935 172.734,270.602 171.5,272.5C 172.878,276.056 173.878,279.723 174.5,283.5C 173.176,286.46 171.843,289.46 170.5,292.5C 172.828,293.724 175.161,293.724 177.5,292.5C 180.907,302.798 180.907,312.965 177.5,323C 178.896,327.833 179.229,332.666 178.5,337.5C 174.204,335.901 169.871,334.401 165.5,333C 164.809,331.933 164.309,330.766 164,329.5C 163.543,318.82 162.876,308.153 162,297.5C 153.788,274.475 151.288,250.808 154.5,226.5C 155.889,221.731 156.556,216.731 156.5,211.5C 155.793,206.673 154.459,202.006 152.5,197.5C 149.426,203.462 147.759,209.796 147.5,216.5C 146.193,211.684 145.193,206.684 144.5,201.5C 146.129,200.375 147.629,199.041 149,197.5C 150.835,191.494 152.668,185.494 154.5,179.5C 154.237,176.972 153.404,174.639 152,172.5C 148.271,168.602 144.438,164.935 140.5,161.5C 143.443,161.02 146.11,160.02 148.5,158.5 Z"/></g>
<g><path style="opacity:0.91" fill="#d7e1e5" d="M 50.5,161.5 C 49.7369,164.141 49.5702,166.808 50,169.5C 51.6627,173.496 53.8294,177.163 56.5,180.5C 55.7542,181.736 55.4208,183.07 55.5,184.5C 53.8819,187.171 53.2153,190.171 53.5,193.5C 52.8826,193.611 52.3826,193.944 52,194.5C 51.8227,198.356 51.3227,202.023 50.5,205.5C 50.1667,205.5 49.8333,205.5 49.5,205.5C 47.8964,199.689 45.8964,194.022 43.5,188.5C 43.2914,187.078 42.7914,185.745 42,184.5C 41.5026,187.146 41.3359,189.813 41.5,192.5C 41.0074,194.806 40.6741,197.139 40.5,199.5C 39.7321,200.263 39.2321,201.263 39,202.5C 38.5003,210.827 38.3336,219.16 38.5,227.5C 35.0861,227.736 31.7527,228.402 28.5,229.5C 30.4203,232.339 32.0869,235.339 33.5,238.5C 32.0604,245.47 30.727,252.47 29.5,259.5C 24.0823,259.898 23.2489,261.898 27,265.5C 26.2225,284.5 26.3892,303.5 27.5,322.5C 26.1455,320.479 24.4788,318.812 22.5,317.5C 21.6315,310.852 20.7982,304.185 20,297.5C 14.5068,253.8 20.5068,211.8 38,171.5C 41.4872,167.165 45.6538,163.832 50.5,161.5 Z"/></g>
<g><path style="opacity:1" fill="#9e9b33" d="M 104.5,164.5 C 104.768,166.099 104.434,167.432 103.5,168.5C 102.811,167.226 101.977,167.226 101,168.5C 100.502,171.482 100.335,174.482 100.5,177.5C 99.5,176.833 98.5,176.167 97.5,175.5C 95.7152,168.914 98.0485,165.247 104.5,164.5 Z"/></g>
<g><path style="opacity:1" fill="#847d23" d="M 136.5,167.5 C 141.557,170.446 141.723,173.78 137,177.5C 136.502,174.183 136.335,170.85 136.5,167.5 Z"/></g>
<g><path style="opacity:1" fill="#444218" d="M 103.5,168.5 C 103.699,171.941 103.199,175.274 102,178.5C 101.617,177.944 101.117,177.611 100.5,177.5C 100.335,174.482 100.502,171.482 101,168.5C 101.977,167.226 102.811,167.226 103.5,168.5 Z"/></g>
<g><path style="opacity:1" fill="#b3b03c" d="M 88.5,173.5 C 80.9819,178.56 72.9819,182.893 64.5,186.5C 63.7025,186.043 63.3691,185.376 63.5,184.5C 68.9456,182.162 74.2789,179.328 79.5,176C 82.3527,174.57 85.3527,173.737 88.5,173.5 Z"/></g>
<g><path style="opacity:1" fill="#d4d793" d="M 43.5,188.5 C 42.8333,189.833 42.1667,191.167 41.5,192.5C 41.3359,189.813 41.5026,187.146 42,184.5C 42.7914,185.745 43.2914,187.078 43.5,188.5 Z"/></g>
<g><path style="opacity:1" fill="#7f7926" d="M 138.5,189.5 C 136.824,190.183 136.157,191.517 136.5,193.5C 135.18,194.942 133.514,195.608 131.5,195.5C 131.5,197.5 131.5,199.5 131.5,201.5C 128.845,202.001 126.678,203.334 125,205.5C 122.977,203.231 122.144,200.564 122.5,197.5C 123.482,198.141 124.482,198.807 125.5,199.5C 125.372,194.607 127.372,190.941 131.5,188.5C 132.251,189.376 132.751,190.376 133,191.5C 133.414,191.043 133.914,190.709 134.5,190.5C 135.649,178.094 136.982,177.76 138.5,189.5 Z"/></g>
<g><path style="opacity:1" fill="#ceca40" d="M 43.5,188.5 C 45.8964,194.022 47.8964,199.689 49.5,205.5C 48.5,205.5 47.5,205.5 46.5,205.5C 46.9114,210.338 47.5781,215.005 48.5,219.5C 48.5,219.833 48.5,220.167 48.5,220.5C 48.2434,232.372 46.5767,244.039 43.5,255.5C 41.4835,256.174 39.8168,257.341 38.5,259C 41.4946,261.475 43.8279,264.308 45.5,267.5C 40.8482,271.836 36.8482,276.836 33.5,282.5C 35.987,283.576 38.3203,284.91 40.5,286.5C 38.9686,287.613 37.9686,289.113 37.5,291C 37.4499,302.509 37.4499,314.009 37.5,325.5C 37.2648,326.097 36.7648,326.43 36,326.5C 32.9357,325.435 30.1024,324.101 27.5,322.5C 26.3892,303.5 26.2225,284.5 27,265.5C 23.2489,261.898 24.0823,259.898 29.5,259.5C 30.727,252.47 32.0604,245.47 33.5,238.5C 32.0869,235.339 30.4203,232.339 28.5,229.5C 31.7527,228.402 35.0861,227.736 38.5,227.5C 39.2757,218.318 39.9424,208.985 40.5,199.5C 40.6741,197.139 41.0074,194.806 41.5,192.5C 42.1667,191.167 42.8333,189.833 43.5,188.5 Z"/></g>
<g><path style="opacity:1" fill="#393820" d="M 55.5,186.5 C 56.1667,186.5 56.8333,186.5 57.5,186.5C 56.6423,194.132 56.3089,201.799 56.5,209.5C 54.2592,202.044 53.9259,194.377 55.5,186.5 Z"/></g>
<g><path style="opacity:0.975" fill="#181d23" d="M 169.5,189.5 C 174.841,203.701 178.341,218.368 180,233.5C 181.132,256.484 181.798,279.484 182,302.5C 184.354,316.077 185.021,329.744 184,343.5C 179.566,352.755 172.899,354.755 164,349.5C 161.672,332.878 159.672,316.211 158,299.5C 154.083,286.417 151.417,273.084 150,259.5C 149.472,265.664 148.972,271.831 148.5,278C 149.913,288.239 151.746,298.406 154,308.5C 156.58,339.118 158.247,369.785 159,400.5C 160.333,404.5 161.667,408.5 163,412.5C 164.589,437.487 165.922,462.487 167,487.5C 168.737,491.649 169.737,495.983 170,500.5C 170.333,512.167 170.667,523.833 171,535.5C 171.471,537.246 172.138,538.913 173,540.5C 179.292,545.123 185.292,550.123 191,555.5C 192.759,558.608 193.592,561.941 193.5,565.5C 177.833,565.5 162.167,565.5 146.5,565.5C 146.179,564.183 145.846,562.849 145.5,561.5C 148.764,550.811 147.931,540.478 143,530.5C 138.195,499.004 132.529,467.671 126,436.5C 121.119,424.525 117.453,412.192 115,399.5C 112.173,393.501 107.673,389.501 101.5,387.5C 98.8887,387.556 96.722,388.556 95,390.5C 92.3678,395.814 89.7011,401.147 87,406.5C 83.9404,417.556 80.6071,428.556 77,439.5C 74.3625,458.688 70.6958,477.688 66,496.5C 65.6667,503.5 65.3333,510.5 65,517.5C 61.1948,524.614 58.3615,532.114 56.5,540C 58.0014,548.504 59.6681,557.004 61.5,565.5C 45.5,565.5 29.5,565.5 13.5,565.5C 18.3964,557.387 23.563,549.387 29,541.5C 29.9734,539.608 30.6401,537.608 31,535.5C 34.3262,505.586 36.3262,475.586 37,445.5C 38.0438,443.285 38.7105,440.952 39,438.5C 39.417,421.157 40.0836,403.823 41,386.5C 41.8324,375.818 41.6657,365.151 40.5,354.5C 36.2375,354.125 33.0708,352.125 31,348.5C 30.4054,347.101 30.5721,345.768 31.5,344.5C 28.3434,335.535 25.3434,326.535 22.5,317.5C 24.4788,318.812 26.1455,320.479 27.5,322.5C 30.1024,324.101 32.9357,325.435 36,326.5C 36.7648,326.43 37.2648,326.097 37.5,325.5C 39.0987,323.396 40.932,321.396 43,319.5C 43.3333,308.833 43.6667,298.167 44,287.5C 45.2997,283.268 46.7997,279.102 48.5,275C 47.0475,273.435 45.3809,272.102 43.5,271C 44.305,269.887 44.9717,268.721 45.5,267.5C 47.4695,265.353 49.3029,263.02 51,260.5C 50.8777,254.74 51.711,249.407 53.5,244.5C 53.5,245.167 53.8333,245.5 54.5,245.5C 57.9878,251.283 57.6545,256.95 53.5,262.5C 52.4931,260.523 52.4931,260.857 53.5,263.5C 51.9374,270.585 50.9374,277.752 50.5,285C 51.0273,291.827 51.3606,298.66 51.5,305.5C 49.1243,309.393 48.1243,313.727 48.5,318.5C 51.7131,318.81 54.7131,318.477 57.5,317.5C 69.8592,317.728 82.1926,317.395 94.5,316.5C 101.015,316.501 107.515,316.834 114,317.5C 119.231,317.308 124.398,316.641 129.5,315.5C 131.333,312.5 133.167,309.5 135,306.5C 136.509,305.91 138.009,305.244 139.5,304.5C 137.465,301.476 135.465,298.476 133.5,295.5C 133.282,286.599 135.282,278.265 139.5,270.5C 132.568,272.632 125.901,275.965 119.5,280.5C 119.076,274.862 119.576,269.195 121,263.5C 126.466,260.265 132.133,257.599 138,255.5C 140.827,250.523 142.327,245.189 142.5,239.5C 140.5,239.5 138.5,239.5 136.5,239.5C 136.5,238.167 136.5,236.833 136.5,235.5C 138.754,234.876 140.421,233.543 141.5,231.5C 144.905,231.488 147.072,229.821 148,226.5C 148.543,223.132 148.376,219.799 147.5,216.5C 147.759,209.796 149.426,203.462 152.5,197.5C 154.459,202.006 155.793,206.673 156.5,211.5C 155.111,216.269 154.444,221.269 154.5,226.5C 151.288,250.808 153.788,274.475 162,297.5C 162.876,308.153 163.543,318.82 164,329.5C 164.309,330.766 164.809,331.933 165.5,333C 169.871,334.401 174.204,335.901 178.5,337.5C 179.229,332.666 178.896,327.833 177.5,323C 180.907,312.965 180.907,302.798 177.5,292.5C 175.161,293.724 172.828,293.724 170.5,292.5C 171.843,289.46 173.176,286.46 174.5,283.5C 173.878,279.723 172.878,276.056 171.5,272.5C 172.734,270.602 172.401,268.935 170.5,267.5C 171.833,266.5 173.167,265.5 174.5,264.5C 173.752,262.668 172.752,261.001 171.5,259.5C 174.107,258.682 176.774,258.182 179.5,258C 176.05,255.842 175.717,253.342 178.5,250.5C 174.921,248.84 174.588,246.673 177.5,244C 176.529,238.928 176.195,233.762 176.5,228.5C 171.933,229.022 167.6,230.355 163.5,232.5C 163.167,232.167 162.833,231.833 162.5,231.5C 163.606,227.111 165.773,226.111 169,228.5C 172.338,220.77 173.171,212.77 171.5,204.5C 169.483,203.826 167.817,202.659 166.5,201C 164.687,201.046 163.021,200.88 161.5,200.5C 162.764,197.875 163.931,195.208 165,192.5C 166.129,190.859 167.629,189.859 169.5,189.5 Z M 54.5,251.5 C 55.1239,251.917 55.4573,252.584 55.5,253.5C 55,255.5 54.5,257.5 54,259.5C 53.2782,256.739 53.4448,254.073 54.5,251.5 Z M 46.5,313.5 C 46.4465,305.135 46.9465,296.802 48,288.5C 50.3339,297.14 49.8339,305.473 46.5,313.5 Z"/></g>
<g><path style="opacity:1" fill="#50534f" d="M 55.5,184.5 C 55.5,185.167 55.5,185.833 55.5,186.5C 53.9259,194.377 54.2592,202.044 56.5,209.5C 56.1667,210.5 55.5,211.167 54.5,211.5C 53.5104,205.69 53.1771,199.69 53.5,193.5C 53.2153,190.171 53.8819,187.171 55.5,184.5 Z"/></g>
<g><path style="opacity:1" fill="#d3d26c" d="M 40.5,199.5 C 39.9424,208.985 39.2757,218.318 38.5,227.5C 38.3336,219.16 38.5003,210.827 39,202.5C 39.2321,201.263 39.7321,200.263 40.5,199.5 Z"/></g>
<g><path style="opacity:1" fill="#787d7f" d="M 53.5,193.5 C 53.1771,199.69 53.5104,205.69 54.5,211.5C 53.7095,212.401 52.7095,213.068 51.5,213.5C 51.5,213.167 51.5,212.833 51.5,212.5C 51.702,210.05 51.3686,207.717 50.5,205.5C 51.3227,202.023 51.8227,198.356 52,194.5C 52.3826,193.944 52.8826,193.611 53.5,193.5 Z"/></g>
<g><path style="opacity:1" fill="#e4e7e5" d="M 122.5,197.5 C 122.144,200.564 122.977,203.231 125,205.5C 126.678,203.334 128.845,202.001 131.5,201.5C 132.376,201.369 133.043,201.702 133.5,202.5C 133.964,206.038 135.464,209.038 138,211.5C 137.575,205.568 137.075,199.568 136.5,193.5C 136.157,191.517 136.824,190.183 138.5,189.5C 139.458,189.953 140.292,190.619 141,191.5C 141.701,195.109 142.868,198.442 144.5,201.5C 145.193,206.684 146.193,211.684 147.5,216.5C 148.376,219.799 148.543,223.132 148,226.5C 147.072,229.821 144.905,231.488 141.5,231.5C 140.346,229.355 139.013,227.355 137.5,225.5C 135.216,228.638 134.882,231.971 136.5,235.5C 136.5,236.833 136.5,238.167 136.5,239.5C 136.38,240.586 135.713,241.253 134.5,241.5C 133.584,241.457 132.917,241.124 132.5,240.5C 131.337,236.992 129.337,233.992 126.5,231.5C 125.548,233.045 125.215,234.712 125.5,236.5C 124.232,238.905 123.565,241.572 123.5,244.5C 121.876,244.64 120.71,243.973 120,242.5C 118.872,244.345 118.372,246.345 118.5,248.5C 117.5,248.5 116.5,248.5 115.5,248.5C 115.585,247.005 114.919,246.005 113.5,245.5C 109.69,248.338 106.19,248.005 103,244.5C 102.283,245.044 101.783,245.711 101.5,246.5C 100.5,246.833 99.8333,247.5 99.5,248.5C 97.8828,249.038 96.2161,249.371 94.5,249.5C 91.3567,248.866 88.8567,247.2 87,244.5C 86.1534,246.193 85.3201,247.86 84.5,249.5C 81.9021,251.304 79.7354,253.638 78,256.5C 77.79,258.058 77.29,259.391 76.5,260.5C 73.0872,261.374 70.0872,263.041 67.5,265.5C 66.5,265.5 65.5,265.5 64.5,265.5C 64.6287,263.784 64.962,262.117 65.5,260.5C 67.7957,258.599 69.629,256.266 71,253.5C 71.6396,246.617 70.8062,239.95 68.5,233.5C 66.2143,234.42 63.8809,234.42 61.5,233.5C 61.4326,232.041 61.7659,230.708 62.5,229.5C 63.795,228.512 65.1283,227.512 66.5,226.5C 67.9952,226.011 69.3285,225.345 70.5,224.5C 71.4734,224.013 72.4734,223.513 73.5,223C 71.388,219.222 68.888,215.722 66,212.5C 65.6012,212.728 65.4346,213.062 65.5,213.5C 64.5269,215.948 64.1936,218.615 64.5,221.5C 64.0667,224.259 62.4,225.592 59.5,225.5C 59.7373,224.209 59.404,223.209 58.5,222.5C 58.1667,220.5 57.8333,218.5 57.5,216.5C 55.5,216.5 53.5,216.5 51.5,216.5C 51.5,215.5 51.5,214.5 51.5,213.5C 52.7095,213.068 53.7095,212.401 54.5,211.5C 55.5,211.167 56.1667,210.5 56.5,209.5C 56.3089,201.799 56.6423,194.132 57.5,186.5C 57.281,185.325 57.6143,184.325 58.5,183.5C 60.62,181.991 62.2867,182.324 63.5,184.5C 63.3691,185.376 63.7025,186.043 64.5,186.5C 72.9819,182.893 80.9819,178.56 88.5,173.5C 89.7564,173.096 90.9231,172.429 92,171.5C 93.4314,173.438 95.2647,174.771 97.5,175.5C 98.5,176.167 99.5,176.833 100.5,177.5C 101.117,177.611 101.617,177.944 102,178.5C 103.199,175.274 103.699,171.941 103.5,168.5C 104.434,167.432 104.768,166.099 104.5,164.5C 106.01,163.272 107.51,163.272 109,164.5C 112.309,170.251 115.142,176.251 117.5,182.5C 124.267,183.759 124.934,186.259 119.5,190C 121.055,192.255 122.055,194.755 122.5,197.5 Z"/></g>
<g><path style="opacity:1" fill="#b5b13d" d="M 111.5,198.5 C 112.379,200.228 113.046,202.061 113.5,204C 112.795,206.542 111.461,208.708 109.5,210.5C 108.609,211.11 107.609,211.443 106.5,211.5C 106.5,209.833 106.5,208.167 106.5,206.5C 107.5,206.5 108.5,206.5 109.5,206.5C 109.565,203.572 110.232,200.905 111.5,198.5 Z"/></g>
<g><path style="opacity:1" fill="#302e14" d="M 105.5,204.5 C 105.179,206.048 104.179,206.715 102.5,206.5C 102.167,206.5 101.833,206.5 101.5,206.5C 101.552,204.097 101.219,201.764 100.5,199.5C 101.467,198.194 102.801,197.527 104.5,197.5C 104.993,199.806 105.326,202.139 105.5,204.5 Z"/></g>
<g><path style="opacity:1" fill="#20465f" d="M 143.5,206.5 C 142.5,207.167 141.5,207.833 140.5,208.5C 139.244,203.689 138.744,198.689 139,193.5C 140.353,197.929 141.853,202.263 143.5,206.5 Z"/></g>
<g><path style="opacity:1" fill="#848133" d="M 100.5,199.5 C 101.219,201.764 101.552,204.097 101.5,206.5C 100.038,205.542 98.7051,204.376 97.5,203C 98.6364,201.855 99.6364,200.688 100.5,199.5 Z"/></g>
<g><path style="opacity:1" fill="#555221" d="M 117.5,210.5 C 117.665,207.482 117.498,204.482 117,201.5C 114.836,204.447 114.002,207.781 114.5,211.5C 112.883,210.962 111.216,210.629 109.5,210.5C 111.461,208.708 112.795,206.542 113.5,204C 113.046,202.061 112.379,200.228 111.5,198.5C 111.215,196.712 111.548,195.045 112.5,193.5C 118.242,198.095 119.908,203.761 117.5,210.5 Z"/></g>
<g><path style="opacity:1" fill="#0b3352" d="M 65.5,189.5 C 64.5876,190.738 64.4209,192.072 65,193.5C 66.5,197.167 68,200.833 69.5,204.5C 69.9569,205.298 70.6236,205.631 71.5,205.5C 71.5,205.833 71.5,206.167 71.5,206.5C 71.1961,207.15 70.8627,207.817 70.5,208.5C 72.2854,211.273 73.1187,214.273 73,217.5C 70.6963,215.22 69.1963,212.554 68.5,209.5C 66.5165,209.383 64.8498,210.05 63.5,211.5C 62.8038,214.556 61.9704,217.556 61,220.5C 60.3167,217.576 58.8167,215.242 56.5,213.5C 57.1449,212.354 57.9783,211.354 59,210.5C 59.5326,205.653 59.366,200.82 58.5,196C 58.4845,192.559 59.3179,189.393 61,186.5C 62.129,188.141 63.629,189.141 65.5,189.5 Z"/></g>
<g><path style="opacity:1" fill="#bec3ca" d="M 63.5,200.5 C 64.4343,201.772 65.101,203.272 65.5,205C 65.3865,206.28 64.7199,207.113 63.5,207.5C 62.4249,205.189 62.4249,202.856 63.5,200.5 Z"/></g>
<g><path style="opacity:1" fill="#3d3a1f" d="M 136.5,193.5 C 137.075,199.568 137.575,205.568 138,211.5C 135.464,209.038 133.964,206.038 133.5,202.5C 133.043,201.702 132.376,201.369 131.5,201.5C 131.5,199.5 131.5,197.5 131.5,195.5C 133.514,195.608 135.18,194.942 136.5,193.5 Z"/></g>
<g><path style="opacity:1" fill="#0e4158" d="M 100.5,180.5 C 101.458,180.953 102.292,181.619 103,182.5C 103.678,186.221 103.511,189.888 102.5,193.5C 101.662,193.842 101.328,194.508 101.5,195.5C 99.193,196.977 97.3597,198.977 96,201.5C 95.4054,202.899 95.5721,204.232 96.5,205.5C 92.975,206.512 89.8083,208.179 87,210.5C 86.6666,208.953 87.1666,207.62 88.5,206.5C 84.9725,205.079 81.3058,204.412 77.5,204.5C 77.6662,210.842 77.4995,217.175 77,223.5C 75.4521,218.761 74.2854,213.927 73.5,209C 73.3158,207.624 72.6491,206.791 71.5,206.5C 71.5,206.167 71.5,205.833 71.5,205.5C 72.0431,205.44 72.3764,205.107 72.5,204.5C 71.3887,203.389 70.722,202.055 70.5,200.5C 70.7472,199.287 71.4138,198.62 72.5,198.5C 72.7512,200.17 73.4178,201.67 74.5,203C 78.8064,203.912 82.8064,203.412 86.5,201.5C 87.609,201.557 88.609,201.89 89.5,202.5C 89.56,203.043 89.8933,203.376 90.5,203.5C 91.1324,200.898 92.1324,198.564 93.5,196.5C 94.0768,197.773 94.7435,197.773 95.5,196.5C 97.3158,193.557 98.6491,190.391 99.5,187C 99.1382,185.566 98.4715,184.399 97.5,183.5C 98.3065,182.272 99.3065,181.272 100.5,180.5 Z"/></g>
<g><path style="opacity:1" fill="#5c5c4c" d="M 87.5,194.5 C 88.4511,195.919 88.7845,197.585 88.5,199.5C 87.325,199.719 86.325,199.386 85.5,198.5C 86.1799,197.14 86.8466,195.807 87.5,194.5 Z"/></g>
<g><path style="opacity:1" fill="#d6dbdd" d="M 72.5,198.5 C 71.4138,198.62 70.7472,199.287 70.5,200.5C 70.722,202.055 71.3887,203.389 72.5,204.5C 72.3764,205.107 72.0431,205.44 71.5,205.5C 70.6236,205.631 69.9569,205.298 69.5,204.5C 68,200.833 66.5,197.167 65,193.5C 64.4209,192.072 64.5876,190.738 65.5,189.5C 69.3566,188.825 73.0233,187.658 76.5,186C 78.7695,185.242 80.9361,185.409 83,186.5C 82.8114,190.878 80.978,194.544 77.5,197.5C 76.6667,194.5 75.8333,191.5 75,188.5C 71.9667,191.3 71.1334,194.633 72.5,198.5 Z"/></g>
<g><path style="opacity:1" fill="#2d2d1a" d="M 69.5,190.5 C 70.0431,190.56 70.3764,190.893 70.5,191.5C 69.9017,192.795 69.4017,194.128 69,195.5C 66.99,193.604 67.1567,191.937 69.5,190.5 Z"/></g>
<g><path style="opacity:1" fill="#1d5362" d="M 101.5,195.5 C 101.328,194.508 101.662,193.842 102.5,193.5C 103.458,193.047 104.292,192.381 105,191.5C 105.664,187.304 105.497,183.138 104.5,179C 105.135,174.95 106.301,171.117 108,167.5C 111.212,174.289 114.712,180.956 118.5,187.5C 118.069,188.293 117.735,189.127 117.5,190C 119.514,193.224 120.348,196.724 120,200.5C 114.576,188.211 110.576,188.545 108,201.5C 107.163,199.649 106.329,197.816 105.5,196C 104.207,195.51 102.873,195.343 101.5,195.5 Z"/></g>
<g><path style="opacity:1" fill="#c3cdd1" d="M 109.5,181.5 C 110.725,182.937 111.725,184.604 112.5,186.5C 112.167,187.5 111.5,188.167 110.5,188.5C 109.526,186.257 109.192,183.924 109.5,181.5 Z"/></g>
<g><path style="opacity:1" fill="#0b505d" d="M 86.5,201.5 C 82.8064,203.412 78.8064,203.912 74.5,203C 73.4178,201.67 72.7512,200.17 72.5,198.5C 71.1334,194.633 71.9667,191.3 75,188.5C 75.8333,191.5 76.6667,194.5 77.5,197.5C 80.978,194.544 82.8114,190.878 83,186.5C 80.9361,185.409 78.7695,185.242 76.5,186C 73.0233,187.658 69.3566,188.825 65.5,189.5C 70.3975,183.395 76.7308,181.228 84.5,183C 86.3569,184.182 87.3569,185.849 87.5,188C 86.1719,192.489 84.1719,196.656 81.5,200.5C 83.0453,201.452 84.712,201.785 86.5,201.5 Z"/></g>
<g><path style="opacity:1" fill="#41412d" d="M 77.5,187.5 C 78.9778,187.238 80.3112,187.571 81.5,188.5C 79.2842,193.829 77.9509,193.495 77.5,187.5 Z"/></g>
<g><path style="opacity:1" fill="#dce0e1" d="M 97.5,183.5 C 98.4715,184.399 99.1382,185.566 99.5,187C 98.6491,190.391 97.3158,193.557 95.5,196.5C 94.7435,197.773 94.0768,197.773 93.5,196.5C 94.1153,191.879 94.782,187.212 95.5,182.5C 96.1835,182.863 96.8501,183.196 97.5,183.5 Z"/></g>
<g><path style="opacity:1" fill="#15505f" d="M 100.5,180.5 C 99.3065,181.272 98.3065,182.272 97.5,183.5C 96.8501,183.196 96.1835,182.863 95.5,182.5C 94.782,187.212 94.1153,191.879 93.5,196.5C 92.1324,198.564 91.1324,200.898 90.5,203.5C 89.8933,203.376 89.56,203.043 89.5,202.5C 90.1582,201.207 90.4915,199.707 90.5,198C 89.967,193.17 89.467,188.337 89,183.5C 87.0162,181.387 84.5162,180.22 81.5,180C 85.2035,178.1 89.0368,176.6 93,175.5C 95.7405,176.899 98.2405,178.566 100.5,180.5 Z"/></g>
<g><path style="opacity:1" fill="#746d20" d="M 49.5,205.5 C 49.8333,205.5 50.1667,205.5 50.5,205.5C 51.3686,207.717 51.702,210.05 51.5,212.5C 48.9078,214.036 47.9078,216.369 48.5,219.5C 47.5781,215.005 46.9114,210.338 46.5,205.5C 47.5,205.5 48.5,205.5 49.5,205.5 Z"/></g>
<g><path style="opacity:1" fill="#2e2c14" d="M 117.5,210.5 C 117.649,214.001 116.649,214.334 114.5,211.5C 114.002,207.781 114.836,204.447 117,201.5C 117.498,204.482 117.665,207.482 117.5,210.5 Z"/></g>
<g><path style="opacity:1" fill="#45441f" d="M 79.5,207.5 C 81.5273,207.338 83.5273,207.505 85.5,208C 83.7071,209.78 82.0404,211.613 80.5,213.5C 79.5344,211.604 79.2011,209.604 79.5,207.5 Z"/></g>
<g><path style="opacity:1" fill="#656023" d="M 105.5,204.5 C 106.338,204.842 106.672,205.508 106.5,206.5C 106.5,208.167 106.5,209.833 106.5,211.5C 105.5,213.167 104.167,214.5 102.5,215.5C 102.5,213.5 102.5,211.5 102.5,209.5C 102.5,208.5 102.5,207.5 102.5,206.5C 104.179,206.715 105.179,206.048 105.5,204.5 Z"/></g>
<g><path style="opacity:1" fill="#827f2b" d="M 98.5,209.5 C 98.5,210.833 98.5,212.167 98.5,213.5C 95.1501,213.335 91.8168,213.502 88.5,214C 86.0735,215.971 83.4068,217.471 80.5,218.5C 80.5,217.5 80.5,216.5 80.5,215.5C 82.1992,215.66 83.8659,215.494 85.5,215C 89.2393,211.18 93.5727,209.347 98.5,209.5 Z"/></g>
<g><path style="opacity:1" fill="#063050" d="M 108.5,218.5 C 107.292,217.766 105.959,217.433 104.5,217.5C 107.861,212.657 111.528,212.324 115.5,216.5C 114.724,219.969 113.224,220.302 111,217.5C 110.098,217.743 109.265,218.077 108.5,218.5 Z"/></g>
<g><path style="opacity:1" fill="#3c3a14" d="M 51.5,212.5 C 51.5,212.833 51.5,213.167 51.5,213.5C 51.5,214.5 51.5,215.5 51.5,216.5C 53.5,216.5 55.5,216.5 57.5,216.5C 57.8333,218.5 58.1667,220.5 58.5,222.5C 58.5,222.833 58.5,223.167 58.5,223.5C 56.6064,222.952 54.9397,221.952 53.5,220.5C 51.9974,221.052 50.3307,221.052 48.5,220.5C 48.5,220.167 48.5,219.833 48.5,219.5C 47.9078,216.369 48.9078,214.036 51.5,212.5 Z"/></g>
<g><path style="opacity:1" fill="#2d2c14" d="M 70.5,224.5 C 67.4725,221.466 65.8058,217.8 65.5,213.5C 65.4346,213.062 65.6012,212.728 66,212.5C 68.888,215.722 71.388,219.222 73.5,223C 72.4734,223.513 71.4734,224.013 70.5,224.5 Z"/></g>
<g><path style="opacity:1" fill="#5a5823" d="M 102.5,216.5 C 101.406,218.359 100.573,220.359 100,222.5C 99.2828,221.956 98.7828,221.289 98.5,220.5C 98.8333,218.167 100.167,216.833 102.5,216.5 Z"/></g>
<g><path style="opacity:1" fill="#b1ae37" d="M 98.5,209.5 C 99.8333,209.5 101.167,209.5 102.5,209.5C 102.5,211.5 102.5,213.5 102.5,215.5C 102.5,215.833 102.5,216.167 102.5,216.5C 100.167,216.833 98.8333,218.167 98.5,220.5C 96.1643,218.609 93.4976,218.109 90.5,219C 87.9841,221.683 85.3174,224.183 82.5,226.5C 79.2141,224.595 78.5474,221.928 80.5,218.5C 83.4068,217.471 86.0735,215.971 88.5,214C 91.8168,213.502 95.1501,213.335 98.5,213.5C 98.5,212.167 98.5,210.833 98.5,209.5 Z"/></g>
<g><path style="opacity:1" fill="#262516" d="M 110.5,220.5 C 115.864,223.879 115.198,225.879 108.5,226.5C 108.253,224.142 108.919,222.142 110.5,220.5 Z"/></g>
<g><path style="opacity:1" fill="#77752c" d="M 65.5,213.5 C 65.8058,217.8 67.4725,221.466 70.5,224.5C 69.3285,225.345 67.9952,226.011 66.5,226.5C 66.8799,224.302 66.2132,222.635 64.5,221.5C 64.1936,218.615 64.5269,215.948 65.5,213.5 Z"/></g>
<g><path style="opacity:1" fill="#13515f" d="M 104.5,217.5 C 105.959,217.433 107.292,217.766 108.5,218.5C 104.203,226.482 104.703,234.148 110,241.5C 111.481,238.89 112.648,236.223 113.5,233.5C 114.239,233.631 114.906,233.464 115.5,233C 116.747,231.054 118.08,229.22 119.5,227.5C 122.64,228.089 125.64,228.756 128.5,229.5C 127.07,229.421 125.736,229.754 124.5,230.5C 123.667,233.5 122.833,236.5 122,239.5C 118.476,231.23 117.309,231.563 118.5,240.5C 118,241.5 117.5,242.5 117,243.5C 116,242.167 115,240.833 114,239.5C 112.923,244.115 110.09,245.615 105.5,244C 104.54,242.581 103.707,241.081 103,239.5C 101.303,245.543 97.4692,247.71 91.5,246C 89.3834,244.269 87.8834,242.102 87,239.5C 82.7889,247.708 77.1223,254.708 70,260.5C 70.7853,257.435 72.2853,254.602 74.5,252C 73.2396,245.899 72.4063,239.732 72,233.5C 70.0162,231.387 67.5162,230.22 64.5,230C 72.1158,224.147 78.9491,224.647 85,231.5C 87.4249,221.11 92.2583,218.943 99.5,225C 100.126,225.75 100.626,226.584 101,227.5C 101.866,224.021 103.033,220.688 104.5,217.5 Z"/></g>
<g><path style="opacity:1" fill="#c3c9cf" d="M 125.5,226.5 C 123.744,225.448 123.077,223.781 123.5,221.5C 123.369,220.761 123.536,220.094 124,219.5C 125.829,221.733 126.329,224.067 125.5,226.5 Z"/></g>
<g><path style="opacity:1" fill="#093050" d="M 140.5,208.5 C 141.5,207.833 142.5,207.167 143.5,206.5C 144.388,212.878 145.221,219.211 146,225.5C 145.163,227.007 143.996,227.507 142.5,227C 140.01,224.345 137.344,221.845 134.5,219.5C 134.629,223.127 134.296,226.794 133.5,230.5C 132.768,229.192 131.934,227.858 131,226.5C 129.057,227.807 127.223,227.807 125.5,226.5C 126.329,224.067 125.829,221.733 124,219.5C 123.536,220.094 123.369,220.761 123.5,221.5C 122.167,221.167 120.833,220.833 119.5,220.5C 118.552,215.27 119.386,210.27 122,205.5C 124.945,211.056 127.612,216.723 130,222.5C 129.787,219.044 129.287,215.544 128.5,212C 128.943,210.175 129.277,208.342 129.5,206.5C 130.675,206.281 131.675,206.614 132.5,207.5C 135.528,211.361 138.361,215.361 141,219.5C 141.678,215.779 141.511,212.112 140.5,208.5 Z"/></g>
<g><path style="opacity:1" fill="#797221" d="M 48.5,220.5 C 50.3307,221.052 51.9974,221.052 53.5,220.5C 54.9397,221.952 56.6064,222.952 58.5,223.5C 57.5263,225.085 56.0263,226.085 54,226.5C 53.5005,232.491 53.3338,238.491 53.5,244.5C 51.711,249.407 50.8777,254.74 51,260.5C 49.3029,263.02 47.4695,265.353 45.5,267.5C 43.8279,264.308 41.4946,261.475 38.5,259C 39.8168,257.341 41.4835,256.174 43.5,255.5C 46.5767,244.039 48.2434,232.372 48.5,220.5 Z"/></g>
<g><path style="opacity:1" fill="#4e4c22" d="M 156.5,211.5 C 156.556,216.731 155.889,221.731 154.5,226.5C 154.444,221.269 155.111,216.269 156.5,211.5 Z"/></g>
<g><path style="opacity:1" fill="#e2e5e4" d="M 97.5,225.5 C 98.2679,226.263 98.7679,227.263 99,228.5C 99.6667,232.167 99.6667,235.833 99,239.5C 96.9658,242.859 94.6324,243.192 92,240.5C 91.5386,235.816 91.7053,231.149 92.5,226.5C 94.4147,226.784 96.0813,226.451 97.5,225.5 Z"/></g>
<g><path style="opacity:1" fill="#13445b" d="M 119.5,220.5 C 120.833,220.833 122.167,221.167 123.5,221.5C 123.077,223.781 123.744,225.448 125.5,226.5C 127.223,227.807 129.057,227.807 131,226.5C 131.934,227.858 132.768,229.192 133.5,230.5C 134.008,233.176 134.175,235.843 134,238.5C 132.338,235.351 130.505,232.351 128.5,229.5C 125.64,228.756 122.64,228.089 119.5,227.5C 118.08,229.22 116.747,231.054 115.5,233C 114.906,233.464 114.239,233.631 113.5,233.5C 112.081,232.549 110.415,232.216 108.5,232.5C 108.33,231.178 108.663,230.011 109.5,229C 112.939,227.91 116.273,226.744 119.5,225.5C 119.5,223.833 119.5,222.167 119.5,220.5 Z"/></g>
<g><path style="opacity:1" fill="#2c2a11" d="M 141.5,231.5 C 140.421,233.543 138.754,234.876 136.5,235.5C 134.882,231.971 135.216,228.638 137.5,225.5C 139.013,227.355 140.346,229.355 141.5,231.5 Z"/></g>
<g><path style="opacity:1" fill="#9a962e" d="M 64.5,221.5 C 66.2132,222.635 66.8799,224.302 66.5,226.5C 65.1283,227.512 63.795,228.512 62.5,229.5C 59.0132,230.445 57.6799,232.778 58.5,236.5C 56.9642,234.975 55.9642,232.975 55.5,230.5C 54.5258,232.743 54.1924,235.076 54.5,237.5C 54.5,240.167 54.5,242.833 54.5,245.5C 53.8333,245.5 53.5,245.167 53.5,244.5C 53.3338,238.491 53.5005,232.491 54,226.5C 56.0263,226.085 57.5263,225.085 58.5,223.5C 58.5,223.167 58.5,222.833 58.5,222.5C 59.404,223.209 59.7373,224.209 59.5,225.5C 62.4,225.592 64.0667,224.259 64.5,221.5 Z"/></g>
<g><path style="opacity:1" fill="#dce1e1" d="M 77.5,232.5 C 79.9974,233.081 81.6641,234.581 82.5,237C 81.6898,240.942 80.0232,244.442 77.5,247.5C 77.3695,242.681 77.3695,237.681 77.5,232.5 Z"/></g>
<g><path style="opacity:1" fill="#34331b" d="M 94.5,228.5 C 95.5,228.5 96.5,228.5 97.5,228.5C 97.665,231.85 97.4983,235.183 97,238.5C 96.586,238.957 96.086,239.291 95.5,239.5C 93.2054,236.022 92.8721,232.355 94.5,228.5 Z"/></g>
<g><path style="opacity:1" fill="#5a591b" d="M 62.5,229.5 C 61.7659,230.708 61.4326,232.041 61.5,233.5C 63.0354,235.052 64.8687,236.385 67,237.5C 67.5,242 68,246.5 68.5,251C 68.4915,252.707 68.1582,254.207 67.5,255.5C 67.404,249.627 66.7373,243.96 65.5,238.5C 63.2278,237.681 60.8945,237.015 58.5,236.5C 57.6799,232.778 59.0132,230.445 62.5,229.5 Z"/></g>
<g><path style="opacity:1" fill="#242315" d="M 132.5,240.5 C 129.149,242.859 125.815,245.192 122.5,247.5C 122.557,246.391 122.89,245.391 123.5,244.5C 129.032,242.814 129.699,240.148 125.5,236.5C 125.215,234.712 125.548,233.045 126.5,231.5C 129.337,233.992 131.337,236.992 132.5,240.5 Z"/></g>
<g><path style="opacity:1" fill="#393817" d="M 61.5,233.5 C 63.8809,234.42 66.2143,234.42 68.5,233.5C 70.8062,239.95 71.6396,246.617 71,253.5C 69.629,256.266 67.7957,258.599 65.5,260.5C 65.5,259.833 65.5,259.167 65.5,258.5C 66.9063,258.027 67.573,257.027 67.5,255.5C 68.1582,254.207 68.4915,252.707 68.5,251C 68,246.5 67.5,242 67,237.5C 64.8687,236.385 63.0354,235.052 61.5,233.5 Z"/></g>
<g><path style="opacity:1" fill="#5e5924" d="M 125.5,236.5 C 129.699,240.148 129.032,242.814 123.5,244.5C 123.565,241.572 124.232,238.905 125.5,236.5 Z"/></g>
<g><path style="opacity:1" fill="#7b7421" d="M 136.5,239.5 C 138.5,239.5 140.5,239.5 142.5,239.5C 142.327,245.189 140.827,250.523 138,255.5C 132.133,257.599 126.466,260.265 121,263.5C 119.576,269.195 119.076,274.862 119.5,280.5C 125.901,275.965 132.568,272.632 139.5,270.5C 135.282,278.265 133.282,286.599 133.5,295.5C 135.465,298.476 137.465,301.476 139.5,304.5C 138.009,305.244 136.509,305.91 135,306.5C 133.167,309.5 131.333,312.5 129.5,315.5C 124.398,316.641 119.231,317.308 114,317.5C 107.515,316.834 101.015,316.501 94.5,316.5C 94.2051,312.122 92.5384,311.122 89.5,313.5C 88.8157,308.792 87.9823,304.126 87,299.5C 84.6595,295.994 81.8262,292.994 78.5,290.5C 79.9814,289.52 81.3147,288.353 82.5,287C 81.1667,285.667 79.8333,284.333 78.5,283C 81.9974,280.417 85.6641,278.084 89.5,276C 94.1492,272.317 96.4826,267.817 96.5,262.5C 92.4342,259.437 89.1009,255.771 86.5,251.5C 89.6221,252.76 92.2888,252.093 94.5,249.5C 96.2161,249.371 97.8828,249.038 99.5,248.5C 101.048,248.821 101.715,249.821 101.5,251.5C 105.375,251.356 109.208,251.69 113,252.5C 116.102,250.741 119.269,249.075 122.5,247.5C 125.815,245.192 129.149,242.859 132.5,240.5C 132.917,241.124 133.584,241.457 134.5,241.5C 135.713,241.253 136.38,240.586 136.5,239.5 Z"/></g>
<g><path style="opacity:1" fill="#292711" d="M 115.5,248.5 C 111.154,248.666 106.821,248.499 102.5,248C 101.944,247.617 101.611,247.117 101.5,246.5C 101.783,245.711 102.283,245.044 103,244.5C 106.19,248.005 109.69,248.338 113.5,245.5C 114.919,246.005 115.585,247.005 115.5,248.5 Z"/></g>
<g><path style="opacity:1" fill="#3b3913" d="M 94.5,249.5 C 92.2888,252.093 89.6221,252.76 86.5,251.5C 85.5,251.167 84.8333,250.5 84.5,249.5C 85.3201,247.86 86.1534,246.193 87,244.5C 88.8567,247.2 91.3567,248.866 94.5,249.5 Z"/></g>
<g><path style="opacity:1" fill="#5d581d" d="M 123.5,244.5 C 122.89,245.391 122.557,246.391 122.5,247.5C 119.269,249.075 116.102,250.741 113,252.5C 109.208,251.69 105.375,251.356 101.5,251.5C 101.715,249.821 101.048,248.821 99.5,248.5C 99.8333,247.5 100.5,246.833 101.5,246.5C 101.611,247.117 101.944,247.617 102.5,248C 106.821,248.499 111.154,248.666 115.5,248.5C 116.5,248.5 117.5,248.5 118.5,248.5C 118.372,246.345 118.872,244.345 120,242.5C 120.71,243.973 121.876,244.64 123.5,244.5 Z"/></g>
<g><path style="opacity:1" fill="#ceca3d" d="M 54.5,237.5 C 56.9998,239.499 59.8331,240.833 63,241.5C 63.6667,246.5 63.6667,251.5 63,256.5C 61.2988,259.675 59.4655,262.675 57.5,265.5C 57.8396,267.512 58.1729,269.512 58.5,271.5C 61.6981,272.036 64.3647,271.369 66.5,269.5C 68.5355,266.864 71.2022,265.031 74.5,264C 75.305,262.887 75.9717,261.721 76.5,260.5C 77.29,259.391 77.79,258.058 78,256.5C 79.7354,253.638 81.9021,251.304 84.5,249.5C 84.8333,250.5 85.5,251.167 86.5,251.5C 89.1009,255.771 92.4342,259.437 96.5,262.5C 96.4826,267.817 94.1492,272.317 89.5,276C 85.6641,278.084 81.9974,280.417 78.5,283C 79.8333,284.333 81.1667,285.667 82.5,287C 81.3147,288.353 79.9814,289.52 78.5,290.5C 81.8262,292.994 84.6595,295.994 87,299.5C 87.9823,304.126 88.8157,308.792 89.5,313.5C 92.5384,311.122 94.2051,312.122 94.5,316.5C 82.1926,317.395 69.8592,317.728 57.5,317.5C 54.8333,317.5 52.1667,317.5 49.5,317.5C 51.013,313.682 51.6796,309.682 51.5,305.5C 51.3606,298.66 51.0273,291.827 50.5,285C 50.9374,277.752 51.9374,270.585 53.5,263.5C 53.5,263.167 53.5,262.833 53.5,262.5C 57.6545,256.95 57.9878,251.283 54.5,245.5C 54.5,242.833 54.5,240.167 54.5,237.5 Z"/></g>
<g><path style="opacity:1" fill="#b7b336" d="M 58.5,236.5 C 60.8945,237.015 63.2278,237.681 65.5,238.5C 65.6661,244.176 65.4994,249.843 65,255.5C 63.8338,258.503 62.1672,261.17 60,263.5C 59.5034,265.81 59.3367,268.143 59.5,270.5C 61.9029,270.552 64.2362,270.219 66.5,269.5C 64.3647,271.369 61.6981,272.036 58.5,271.5C 58.1729,269.512 57.8396,267.512 57.5,265.5C 59.4655,262.675 61.2988,259.675 63,256.5C 63.6667,251.5 63.6667,246.5 63,241.5C 59.8331,240.833 56.9998,239.499 54.5,237.5C 54.1924,235.076 54.5258,232.743 55.5,230.5C 55.9642,232.975 56.9642,234.975 58.5,236.5 Z"/></g>
<g><path style="opacity:1" fill="#9b982f" d="M 65.5,238.5 C 66.7373,243.96 67.404,249.627 67.5,255.5C 67.573,257.027 66.9063,258.027 65.5,258.5C 62.9337,261.395 61.2671,264.728 60.5,268.5C 62.5273,268.662 64.5273,268.495 66.5,268C 67.2524,267.329 67.5858,266.496 67.5,265.5C 70.0872,263.041 73.0872,261.374 76.5,260.5C 75.9717,261.721 75.305,262.887 74.5,264C 71.2022,265.031 68.5355,266.864 66.5,269.5C 64.2362,270.219 61.9029,270.552 59.5,270.5C 59.3367,268.143 59.5034,265.81 60,263.5C 62.1672,261.17 63.8338,258.503 65,255.5C 65.4994,249.843 65.6661,244.176 65.5,238.5 Z"/></g>
<g><path style="opacity:1" fill="#7a772b" d="M 65.5,258.5 C 65.5,259.167 65.5,259.833 65.5,260.5C 64.962,262.117 64.6287,263.784 64.5,265.5C 65.5,265.5 66.5,265.5 67.5,265.5C 67.5858,266.496 67.2524,267.329 66.5,268C 64.5273,268.495 62.5273,268.662 60.5,268.5C 61.2671,264.728 62.9337,261.395 65.5,258.5 Z"/></g>
<g><path style="opacity:1" fill="#7c7521" d="M 45.5,267.5 C 44.9717,268.721 44.305,269.887 43.5,271C 45.3809,272.102 47.0475,273.435 48.5,275C 46.7997,279.102 45.2997,283.268 44,287.5C 43.6667,298.167 43.3333,308.833 43,319.5C 40.932,321.396 39.0987,323.396 37.5,325.5C 37.4499,314.009 37.4499,302.509 37.5,291C 37.9686,289.113 38.9686,287.613 40.5,286.5C 38.3203,284.91 35.987,283.576 33.5,282.5C 36.8482,276.836 40.8482,271.836 45.5,267.5 Z"/></g>
<g><path style="opacity:1" fill="#aaa839" d="M 51.5,305.5 C 51.6796,309.682 51.013,313.682 49.5,317.5C 52.1667,317.5 54.8333,317.5 57.5,317.5C 54.7131,318.477 51.7131,318.81 48.5,318.5C 48.1243,313.727 49.1243,309.393 51.5,305.5 Z"/></g>
</svg>
